<svg xmlns="http://www.w3.org/2000/svg" width="64" height="64" viewBox="0 0 64 64" shape-rendering="crispEdges" role="img" aria-label="QR demo 64x64">
  <rect width="64" height="64" fill="#ffffff"/>
  <rect x="0" y="0" width="16" height="16" fill="#000000"/>
  <rect x="2" y="2" width="12" height="12" fill="#ffffff"/>
  <rect x="4" y="4" width="8" height="8" fill="#000000"/>
  <rect x="48" y="0" width="16" height="16" fill="#000000"/>
  <rect x="50" y="2" width="12" height="12" fill="#ffffff"/>
  <rect x="52" y="4" width="8" height="8" fill="#000000"/>
  <rect x="0" y="48" width="16" height="16" fill="#000000"/>
  <rect x="2" y="50" width="12" height="12" fill="#ffffff"/>
  <rect x="4" y="52" width="8" height="8" fill="#000000"/>

  <rect x="20" y="4" width="2" height="2" fill="#000000"/>
  <rect x="24" y="4" width="2" height="2" fill="#000000"/>
  <rect x="28" y="4" width="2" height="2" fill="#000000"/>
  <rect x="34" y="4" width="2" height="2" fill="#000000"/>
  <rect x="38" y="4" width="2" height="2" fill="#000000"/>
  <rect x="42" y="4" width="2" height="2" fill="#000000"/>

  <rect x="18" y="10" width="2" height="2" fill="#000000"/>
  <rect x="22" y="10" width="2" height="2" fill="#000000"/>
  <rect x="26" y="10" width="2" height="2" fill="#000000"/>
  <rect x="30" y="10" width="2" height="2" fill="#000000"/>
  <rect x="34" y="10" width="2" height="2" fill="#000000"/>
  <rect x="40" y="10" width="2" height="2" fill="#000000"/>
  <rect x="44" y="10" width="2" height="2" fill="#000000"/>

  <rect x="18" y="18" width="2" height="2" fill="#000000"/>
  <rect x="22" y="18" width="2" height="2" fill="#000000"/>
  <rect x="30" y="18" width="2" height="2" fill="#000000"/>
  <rect x="34" y="18" width="2" height="2" fill="#000000"/>
  <rect x="38" y="18" width="2" height="2" fill="#000000"/>
  <rect x="44" y="18" width="2" height="2" fill="#000000"/>

  <rect x="20" y="24" width="2" height="2" fill="#000000"/>
  <rect x="24" y="24" width="2" height="2" fill="#000000"/>
  <rect x="28" y="24" width="2" height="2" fill="#000000"/>
  <rect x="32" y="24" width="2" height="2" fill="#000000"/>
  <rect x="40" y="24" width="2" height="2" fill="#000000"/>
  <rect x="44" y="24" width="2" height="2" fill="#000000"/>

  <rect x="18" y="30" width="2" height="2" fill="#000000"/>
  <rect x="22" y="30" width="2" height="2" fill="#000000"/>
  <rect x="26" y="30" width="2" height="2" fill="#000000"/>
  <rect x="34" y="30" width="2" height="2" fill="#000000"/>
  <rect x="38" y="30" width="2" height="2" fill="#000000"/>
  <rect x="44" y="30" width="2" height="2" fill="#000000"/>

  <rect x="18" y="36" width="2" height="2" fill="#000000"/>
  <rect x="22" y="36" width="2" height="2" fill="#000000"/>
  <rect x="30" y="36" width="2" height="2" fill="#000000"/>
  <rect x="34" y="36" width="2" height="2" fill="#000000"/>
  <rect x="40" y="36" width="2" height="2" fill="#000000"/>
  <rect x="44" y="36" width="2" height="2" fill="#000000"/>

  <rect x="20" y="42" width="2" height="2" fill="#000000"/>
  <rect x="24" y="42" width="2" height="2" fill="#000000"/>
  <rect x="28" y="42" width="2" height="2" fill="#000000"/>
  <rect x="32" y="42" width="2" height="2" fill="#000000"/>
  <rect x="36" y="42" width="2" height="2" fill="#000000"/>
  <rect x="42" y="42" width="2" height="2" fill="#000000"/>

  <rect x="50" y="20" width="2" height="2" fill="#000000"/>
  <rect x="54" y="20" width="2" height="2" fill="#000000"/>
  <rect x="58" y="20" width="2" height="2" fill="#000000"/>
  <rect x="50" y="24" width="2" height="2" fill="#000000"/>
  <rect x="56" y="24" width="2" height="2" fill="#000000"/>
  <rect x="60" y="24" width="2" height="2" fill="#000000"/>
  <rect x="50" y="28" width="2" height="2" fill="#000000"/>
  <rect x="54" y="28" width="2" height="2" fill="#000000"/>
  <rect x="58" y="28" width="2" height="2" fill="#000000"/>

  <rect x="20" y="50" width="2" height="2" fill="#000000"/>
  <rect x="24" y="50" width="2" height="2" fill="#000000"/>
  <rect x="30" y="50" width="2" height="2" fill="#000000"/>
  <rect x="36" y="50" width="2" height="2" fill="#000000"/>
  <rect x="42" y="50" width="2" height="2" fill="#000000"/>
  <rect x="20" y="54" width="2" height="2" fill="#000000"/>
  <rect x="28" y="54" width="2" height="2" fill="#000000"/>
  <rect x="34" y="54" width="2" height="2" fill="#000000"/>
  <rect x="40" y="54" width="2" height="2" fill="#000000"/>
  <rect x="44" y="54" width="2" height="2" fill="#000000"/>
</svg>
